<svg xmlns="http://www.w3.org/2000/svg" xmlns:xlink="http://www.w3.org/1999/xlink" width="96" height="96" viewBox="0 0 96 96"><defs><style>.a,.d{fill:#3476cc;}.b{isolation:isolate;}.c{fill:#e4efff;}.d{stroke:#010101;stroke-width:3px;}.e{clip-path:url(#a);}.f{fill:#398bf5;}.g{fill:#afd2ff;}.h,.i{stroke:none;}.i{fill:#010101;}.j{fill:none;}</style><clipPath id="a"><circle class="a" cx="30" cy="30" r="30" transform="translate(50 50)"/></clipPath></defs><g class="b"><g class="c"><path class="h" d="M 48 94.5 C 41.72188186645508 94.5 35.63234710693359 93.27075958251953 29.90056037902832 90.84641265869141 C 24.36355972290039 88.50445556640625 19.39049339294434 85.15142822265625 15.11953353881836 80.88047027587891 C 10.84857368469238 76.60950469970703 7.495546817779541 71.63643646240234 5.153586864471436 66.09944152832031 C 2.729239940643311 60.36765289306641 1.5 54.27811813354492 1.5 48 C 1.5 41.72188186645508 2.729239940643311 35.63234710693359 5.153586864471436 29.90056037902832 C 7.495546817779541 24.36355972290039 10.84857368469238 19.39049339294434 15.11953353881836 15.11953353881836 C 19.39049339294434 10.84857368469238 24.36355972290039 7.495546817779541 29.90056037902832 5.153586864471436 C 35.63234710693359 2.729239940643311 41.72188186645508 1.5 48 1.5 C 54.27811813354492 1.5 60.36765289306641 2.729239940643311 66.09944152832031 5.153586864471436 C 71.63643646240234 7.495546817779541 76.60950469970703 10.84857368469238 80.88047027587891 15.11953353881836 C 85.15142822265625 19.39049339294434 88.50445556640625 24.36355972290039 90.84641265869141 29.90056037902832 C 93.27075958251953 35.63234710693359 94.5 41.72188186645508 94.5 48 C 94.5 54.27811813354492 93.27075958251953 60.36765289306641 90.84641265869141 66.09944152832031 C 88.50445556640625 71.63643646240234 85.15142822265625 76.60950469970703 80.88047027587891 80.88047027587891 C 76.60950469970703 85.15142822265625 71.63643646240234 88.50445556640625 66.09944152832031 90.84641265869141 C 60.36765289306641 93.27075958251953 54.27811813354492 94.5 48 94.5 Z"/><path class="i" d="M 48 3 C 41.92372131347656 3 36.03078460693359 4.189369201660156 30.48489379882813 6.53509521484375 C 25.12667846679688 8.801429748535156 20.31388854980469 12.0465087890625 16.18019866943359 16.18019866943359 C 12.0465087890625 20.31388854980469 8.801429748535156 25.12667846679688 6.53509521484375 30.48489379882813 C 4.189369201660156 36.03078460693359 3 41.92372131347656 3 48 C 3 54.07627868652344 4.189369201660156 59.96921539306641 6.53509521484375 65.51510620117188 C 8.801429748535156 70.87332153320313 12.0465087890625 75.68611145019531 16.18019866943359 79.81980133056641 C 20.31388854980469 83.9534912109375 25.12667846679688 87.19857025146484 30.48489379882813 89.46490478515625 C 36.03078460693359 91.81063079833984 41.92372131347656 93 48 93 C 54.07627868652344 93 59.96921539306641 91.81063079833984 65.51510620117188 89.46490478515625 C 70.87332153320313 87.19857025146484 75.68611145019531 83.9534912109375 79.81980133056641 79.81980133056641 C 83.9534912109375 75.68611145019531 87.19857025146484 70.87332153320313 89.46490478515625 65.51510620117188 C 91.81063079833984 59.96921539306641 93 54.07627868652344 93 48 C 93 41.92372131347656 91.81063079833984 36.03078460693359 89.46490478515625 30.48489379882813 C 87.19857025146484 25.12667846679688 83.9534912109375 20.31388854980469 79.81980133056641 16.18019866943359 C 75.68611145019531 12.0465087890625 70.87332153320313 8.801429748535156 65.51510620117188 6.53509521484375 C 59.96921539306641 4.189369201660156 54.07627868652344 3 48 3 M 48 0 C 74.50965881347656 0 96 21.49034118652344 96 48 C 96 74.50965881347656 74.50965881347656 96 48 96 C 21.49034118652344 96 0 74.50965881347656 0 48 C 0 21.49034118652344 21.49034118652344 0 48 0 Z"/></g><g class="d" transform="translate(15 15)"><circle class="h" cx="33" cy="33" r="33"/><circle class="j" cx="33" cy="33" r="31.5"/></g><g class="e" transform="translate(-32 -32)"><circle class="f" cx="33" cy="33" r="33" transform="translate(37 36)"/></g><circle class="g" cx="8" cy="8" r="8" transform="translate(29 29)"/></g></svg>