<svg xmlns="http://www.w3.org/2000/svg" width="750.93" height="751.454" viewBox="0 0 750.93 751.454"><defs><style>.a{opacity:0.15;}</style></defs><g class="a" transform="translate(451.386)"><path d="M273.926,260.181A13.424,13.424,0,1,1,260.5,246.757,13.423,13.423,0,0,1,273.926,260.181Zm0,0" transform="translate(-336.42 115.474)"/><path d="M.45,362.232H202.123a174.3,174.3,0,0,1,347.614,0H751.375C744.127,160.111,578.167,0,375.914,0S7.7,160.111.448,362.232ZM194.444,77.538a348.119,348.119,0,0,1,83.5-36.883,13.424,13.424,0,0,1,7.529,25.77,319.882,319.882,0,0,0-77,34.027,13.423,13.423,0,1,1-13.986-22.914Zm-50.8,55.6a13.424,13.424,0,0,1,.35,18.963,323.529,323.529,0,0,0-43.282,56.064A13.423,13.423,0,1,1,77.8,194.184a351.006,351.006,0,0,1,46.866-60.691,13.424,13.424,0,0,1,18.98-.35Zm0,0" transform="translate(-451.834)"/><path d="M286.173,191.9a93.95,93.95,0,1,0,93.95,93.95A93.947,93.947,0,0,0,286.173,191.9Zm0,134.216a40.266,40.266,0,1,1,40.266-40.266A40.267,40.267,0,0,1,286.173,326.118Zm0,0" transform="translate(-362.09 89.803)"/><path d="M375.915,627.421c202.2-.258,368.035-160.312,375.461-362.374H549.709a174.3,174.3,0,0,1-347.614,0H.451C7.883,467.109,173.716,627.164,375.917,627.421ZM569.182,509.313A322.693,322.693,0,0,0,651.055,419.1a13.419,13.419,0,0,1,22.908,13.98,348.805,348.805,0,0,1-88.674,97.711,13.422,13.422,0,0,1-16.107-21.475Zm0,0" transform="translate(-451.833 124.033)"/><path d="M303.286,155.332A147.633,147.633,0,1,0,450.919,302.965,147.634,147.634,0,0,0,303.286,155.332Zm0,268.425A120.792,120.792,0,1,1,424.078,302.965,120.791,120.791,0,0,1,303.286,423.757Zm0,0" transform="translate(-379.204 72.69)"/></g></svg>