<?xml version="1.0" encoding="iso-8859-1"?>
<!-- Generator: Adobe Illustrator 19.0.0, SVG Export Plug-In . SVG Version: 6.00 Build 0)  -->
<svg version="1.1" id="Capa_1" xmlns="http://www.w3.org/2000/svg" xmlns:xlink="http://www.w3.org/1999/xlink" x="0px" y="0px"
	 viewBox="0 0 512.128 512.128" style="enable-background:new 0 0 512.128 512.128;" xml:space="preserve">
<g transform="translate(0 -1)">
	<g>
		<g>
			<path d="M493.778,403.414H386.999l-38.4,27.429h145.179c5.049,0,9.143-4.093,9.143-9.143v-9.143
				C502.921,407.507,498.828,403.414,493.778,403.414z"/>
			<path d="M180.919,311.985h150.29c67.615-34.703,102.673-111.193,84.822-185.068S332.065,1,256.064,1
				S113.947,53.043,96.096,126.918S113.303,277.282,180.919,311.985z M346.578,62.303c3.57-3.569,9.358-3.569,12.928,0
				c13.346,13.341,23.997,29.129,31.369,46.501c7.604,18.003,11.506,37.353,11.474,56.896c0,5.049-4.093,9.143-9.143,9.143
				c-5.049,0-9.143-4.093-9.143-9.143c0.023-25.488-7.602-50.398-21.888-71.506c-4.594-6.795-9.816-13.144-15.598-18.962
				C343.009,71.661,343.009,65.873,346.578,62.303z M256.064,19.414c19.546-0.017,38.896,3.901,56.896,11.52
				c4.006,1.695,6.264,5.977,5.398,10.24s-4.614,7.326-8.964,7.324c-1.225-0.003-2.437-0.248-3.566-0.722
				c-15.742-6.669-32.668-10.096-49.765-10.075c-5.049,0-9.143-4.093-9.143-9.143C246.921,23.507,251.015,19.414,256.064,19.414z
				 M164.635,163.432c0-50.715,38.738-91.977,86.345-91.977c58.258,0,105.655,50.551,105.655,112.686
				c0,5.049-4.093,9.143-9.143,9.143s-9.143-4.093-9.143-9.143c0-52.05-39.195-94.4-87.369-94.4
				c-37.531,0-68.059,33.061-68.059,73.691c-1.156,30.272,22.353,55.794,52.617,57.125c23.194-1.082,41.164-20.686,40.229-43.886
				c0.719-17.552-12.846-32.402-30.391-33.271c-13.025,0.695-23.058,11.755-22.482,24.786c-0.468,9.421,6.748,17.457,16.165,18.002
				c5.049,0,9.143,4.093,9.143,9.143c0,5.049-4.093,9.143-9.143,9.143c-19.518-0.543-34.921-16.768-34.45-36.288
				c-0.569-23.126,17.646-42.37,40.768-43.072c27.661,0.851,49.435,23.892,48.722,51.557c0.934,33.298-25.221,61.087-58.514,62.171
				C195.2,237.539,163.476,203.82,164.635,163.432z"/>
			<path d="M338.35,330.271H173.778c-5.049,0-9.143,4.093-9.143,9.143v45.714h182.857v-45.714
				C347.493,334.364,343.399,330.271,338.35,330.271z"/>
			<polygon points="149.12,403.414 255.881,474.591 355.529,403.414 155.493,403.414 			"/>
			<path d="M261.376,493.142c-3.092,2.207-7.226,2.273-10.386,0.165l-66.24-44.178H54.921v54.857c0,5.049,4.093,9.143,9.143,9.143
				h384c5.049,0,9.143-4.093,9.143-9.143v-54.857H322.999L261.376,493.142z"/>
			<path d="M116.178,403.414H18.35c-5.049,0-9.143,4.093-9.143,9.143v9.143c0,5.049,4.093,9.143,9.143,9.143h138.971
				L116.178,403.414z"/>
		</g>
	</g>
</g>
<g>
</g>
<g>
</g>
<g>
</g>
<g>
</g>
<g>
</g>
<g>
</g>
<g>
</g>
<g>
</g>
<g>
</g>
<g>
</g>
<g>
</g>
<g>
</g>
<g>
</g>
<g>
</g>
<g>
</g>
</svg>
