<svg height="454pt" viewBox="0 -57 454.46748 454" width="454pt" xmlns="http://www.w3.org/2000/svg"><path d="m11.378906 262.242188c-14.832031-25.746094-15.175781-54.683594-.960937-79.457032l78-108.964844 33.199219 46.507813-21.21875 29.636719c-.152344.207031-.289063.398437-.417969.621094-12.148438 20.617187-18.222657 44.25-17.523438 68.171874.78125 22.695313 7.167969 44.84375 18.59375 64.472657 4.046875 7.019531 8.660157 13.695312 13.800781 19.957031-8.542968 2.714844-17.457031 4.089844-26.421874 4.078125-31.527344 0-61.050782-17.253906-77.050782-45.023437zm215.855469 78.605468c-45.960937 0-89-25.140625-112.316406-65.613281-10.105469-17.332031-15.761719-36.890625-16.464844-56.941406-.601563-20.824219 4.65625-41.398438 15.179687-59.378907l113.59375-158.679687 113.609376 159.140625c10.5 17.851562 15.761718 38.296875 15.179687 59-.683594 19.960938-6.300781 39.441406-16.34375 56.707031-23.304687 40.566407-66.390625 65.765625-112.4375 65.765625zm215.941406-78.707031c-15.996093 27.835937-45.550781 45.128906-77.136719 45.128906-8.957031.011719-17.859374-1.363281-26.398437-4.074219 5.183594-6.316406 9.835937-13.050781 13.90625-20.136718 11.363281-19.5625 17.707031-41.632813 18.464844-64.242188.679687-23.808594-5.402344-47.316406-17.535157-67.808594-.125-.214843-.257812-.417968-.398437-.621093l-21.402344-29.972657 33.359375-46.597656 78.019532 109.292969c14.179687 24.578125 13.867187 53.363281-.878907 79.03125zm0 0"/></svg>