<svg xmlns="http://www.w3.org/2000/svg" viewBox="0 0 384 384"><defs><style>.cls-1{fill:#fff;}</style></defs><title>fairy</title><g id="Layer_2" data-name="Layer 2"><g id="Layer_1-2" data-name="Layer 1"><path class="cls-1" d="M189,384H0V308.25c2.46,4.8,5.81,8.65,11.71,8.19,10.81-.86,21.59-2.07,32.37-3.15,2.12-.21,3-1.19,3.32-3.54,6.27-45.27,26.93-82.8,61.11-113,.79-.7,1.72-1.24,3-2.18-2-.8-3-1.27-4-1.62a182.79,182.79,0,0,1-39.38-18.85c-2.37-1.51-3.87-1.56-6.12.31-30.29,25.28-50,57-58.27,95.63-1.7,7.89-2.54,16-3.78,24V21.75c.58,4.55,1,9.13,1.75,13.66Q14.83,114.72,83.3,156.87c9.26,5.69,19.45,9.87,29.75,15,0-7.36.32-13.48-.08-19.55-.43-6.4-2.12-12.46-6.41-17.63C82.64,105.84,86.22,64.39,114.65,40c.81-.7,1.59-1.44,2.35-2.14a4.55,4.55,0,0,0-.54-.82c-.46-.42-.95-.81-1.45-1.19a167.74,167.74,0,0,0-68.56-32c-7.9-1.67-16-2.55-24-3.8H144c-6.49,3-8.58,8.12-8.35,15.1.37,11.48.16,23,0,34.47a6,6,0,0,1-2.06,4.2c-22.91,16.19-27,44.82-9.59,67,3.12,4,5.4,8.64,7.69,13.17.91,1.8,1.63,2.65,3.76,2.65,37.72-.06,75.44,0,113.17-.13a5.05,5.05,0,0,0,3.43-2.27c2.94-4.6,5.13-9.75,8.46-14,16.77-21.48,12.56-50.65-9.9-66a4.75,4.75,0,0,1-2.39-4.54c.08-11.5-.23-23,.14-34.48C248.58,8.11,246.51,3,240,0H361.5a15.71,15.71,0,0,1-2.5.61C326.15,3.31,296.77,15,270.46,34.7c-1.25.93-2.42,2-3.76,3l2.05,1.78c29.18,25.2,32.65,65.38,8.6,95.61a28.59,28.59,0,0,0-5.56,12.8c-1.18,7.45-1,15.12-1.41,23.2,1.85-.64,3-1,4.15-1.45q84.35-34.6,105.61-123.26c1.93-8.07,2.61-16.45,3.86-24.68v273a22.28,22.28,0,0,1-.64-2.89c-4.25-45.94-23.95-83.94-58.6-114.28-2-1.78-4.2-3.41-5.87-4.76-7.89,4.22-15.13,8.43-22.66,12s-15.32,6.48-23.28,9.8c1.44,1.28,2.74,2.42,4,3.59,33.48,30.31,53.91,67.58,59.71,112.56.33,2.56,1.65,3.13,3.57,3.35,9.55,1.07,19.1,2,28.64,3.1,7,.79,12.09-1.77,15.1-8.23v75H195a20.69,20.69,0,0,1,2.24-1.16,82.55,82.55,0,0,0,43.48-36.15c.37-.62.83-1.17,1.33-1.87,1.23.7,2.32,1.3,3.38,1.92a58.41,58.41,0,0,0,64.87-3.69c3.81-2.87,5.8-6.46,5.45-11.24-.55-7.34-.68-14.76-1.83-22-6.13-38.81-24.34-70.94-54-96.66a35.93,35.93,0,0,1-6.27-6.89,4.74,4.74,0,0,0-4.6-2.3c-14.88.06-29.75.05-44.62.05-23.13,0-46.25,0-69.37.07a6.53,6.53,0,0,0-4.13,1.53c-3,2.8-5.49,6.13-8.53,8.87-34.87,31.47-53.06,70.58-54.14,117.59a12.1,12.1,0,0,0,5.4,10.87c20.87,14.83,42.54,15.36,64.92,3.72,1.16-.6,2.31-1.22,3.43-1.81,12.65,18.56,20.79,26.43,35.16,33.79C181,380.6,185.05,382.22,189,384Zm59.08-224.74H136v22.05h112Z"/><path d="M189,384c-3.95-1.78-8-3.4-11.83-5.37-14.37-7.36-22.51-15.23-35.16-33.79-1.12.59-2.27,1.21-3.43,1.81-22.38,11.64-44.05,11.11-64.92-3.72a12.1,12.1,0,0,1-5.4-10.87c1.08-47,19.27-86.12,54.14-117.59,3-2.74,5.54-6.07,8.53-8.87a6.53,6.53,0,0,1,4.13-1.53c23.12-.1,46.24-.07,69.37-.07,14.87,0,29.74,0,44.62-.05a4.74,4.74,0,0,1,4.6,2.3,35.93,35.93,0,0,0,6.27,6.89c29.66,25.72,47.87,57.85,54,96.66,1.15,7.25,1.28,14.67,1.83,22,.35,4.78-1.64,8.37-5.45,11.24a58.41,58.41,0,0,1-64.87,3.69c-1.06-.62-2.15-1.22-3.38-1.92-.5.7-1,1.25-1.33,1.87a82.55,82.55,0,0,1-43.48,36.15A20.69,20.69,0,0,0,195,384Z"/><path d="M240,0c6.51,3,8.58,8.11,8.35,15.09-.37,11.48-.06,23-.14,34.48a4.75,4.75,0,0,0,2.39,4.54c22.46,15.38,26.67,44.55,9.9,66-3.33,4.26-5.52,9.41-8.46,14a5.05,5.05,0,0,1-3.43,2.27c-37.73.11-75.45.07-113.17.13-2.13,0-2.85-.85-3.76-2.65-2.29-4.53-4.57-9.2-7.69-13.17-17.37-22.14-13.32-50.77,9.59-67a6,6,0,0,0,2.06-4.2c.17-11.49.38-23,0-34.47C135.42,8.12,137.51,3,144,0h6c6.3,2.93,8.62,7.84,8.34,14.74-.37,9.36-.09,18.74-.09,28.12v3.48A65.91,65.91,0,0,1,191.76,59c9.76-8.11,21.14-12,34-12.69,0-10.68.28-21.16-.1-31.61C225.39,7.83,227.73,2.94,234,0Z"/><path d="M22.5,0c8,1.25,16,2.13,24,3.8a167.74,167.74,0,0,1,68.56,32c.5.38,1,.77,1.45,1.19a4.55,4.55,0,0,1,.54.82c-.76.7-1.54,1.44-2.35,2.14-28.43,24.4-32,65.85-8.09,94.72,4.29,5.17,6,11.23,6.41,17.63.4,6.07.08,12.19.08,19.55-10.3-5.15-20.49-9.33-29.75-15q-68.4-42-81.55-121.46C1,30.88.58,26.3,0,21.75V8.25A17.22,17.22,0,0,1,8.25,0Z"/><path d="M384,21.75c-1.25,8.23-1.93,16.61-3.86,24.68Q359,135.08,274.53,169.69c-1.12.46-2.3.81-4.15,1.45.42-8.08.23-15.75,1.41-23.2a28.59,28.59,0,0,1,5.56-12.8c24-30.23,20.58-70.41-8.6-95.61l-2.05-1.78c1.34-1.09,2.51-2.12,3.76-3C296.77,15,326.15,3.31,359,.61A15.71,15.71,0,0,0,361.5,0h14.25A17.22,17.22,0,0,1,384,8.25Z"/><path d="M0,294c1.24-8,2.08-16.08,3.78-24,8.3-38.61,28-70.35,58.27-95.63,2.25-1.87,3.75-1.82,6.12-.31a182.79,182.79,0,0,0,39.38,18.85c1,.35,2,.82,4,1.62-1.31.94-2.24,1.48-3,2.18C74.33,227,53.67,264.48,47.4,309.75c-.32,2.35-1.2,3.33-3.32,3.54-10.78,1.08-21.56,2.29-32.37,3.15-5.9.46-9.25-3.39-11.71-8.19Z"/><path d="M384,309c-3,6.46-8.11,9-15.1,8.23-9.54-1.07-19.09-2-28.64-3.1-1.92-.22-3.24-.79-3.57-3.35-5.8-45-26.23-82.25-59.71-112.56-1.29-1.17-2.59-2.31-4-3.59,8-3.32,15.77-6.24,23.28-9.8s14.77-7.79,22.66-12c1.67,1.35,3.84,3,5.87,4.76,34.65,30.34,54.35,68.34,58.6,114.28a22.28,22.28,0,0,0,.64,2.89Z"/><path class="cls-1" d="M234,0c-6.27,2.94-8.61,7.83-8.35,14.74.38,10.45.1,20.93.1,31.61-12.85.69-24.23,4.58-34,12.69a65.91,65.91,0,0,0-33.51-12.7V42.86c0-9.38-.28-18.76.09-28.12.28-6.9-2-11.81-8.34-14.74Z"/><path class="cls-1" d="M8.25,0A17.22,17.22,0,0,0,0,8.25V0Z"/><path class="cls-1" d="M384,8.25A17.22,17.22,0,0,0,375.75,0H384Z"/><path d="M248.08,159.26v22.05H136V159.26Z"/></g></g></svg>