<svg height="512pt" viewBox="0 -103 512 512" width="512pt" xmlns="http://www.w3.org/2000/svg"><path d="m362.84375 42.679688c-5.433594-24.730469-27.75-42.679688-53.070312-42.679688h-309.773438c6.847656 29.878906 33.648438 52.234375 65.574219 52.234375h136.304687v30.0625h-172.441406c6.84375 29.878906 33.648438 52.234375 65.570312 52.234375h139.335938v30.0625h-172.441406c6.847656 29.875 33.648437 52.234375 65.574218 52.234375h273.601563zm0 0"/><path d="m471.40625 121.082031c-3.660156-16.664062-12.996094-31.726562-26.289062-42.417969-13.292969-10.691406-30.007813-16.582031-47.066407-16.582031h-.171875l40.578125 184.808594h-280.164062c11.425781 34.285156 43.804687 59.074219 81.878906 59.074219h271.828125zm0 0"/></svg>